<svg width="200" height="150" viewBox="0 0 200 150" fill="none" xmlns="http://www.w3.org/2000/svg">
<g clip-path="url(#clip0_1_24)">
<rect width="200" height="150" fill="white"/>
<rect width="160" height="150" fill="#FAFBFE"/>
<mask id="path-2-inside-1_1_24" fill="white">
<path d="M22 44C22 39.5817 25.5817 36 30 36H160V150H22V44Z"/>
</mask>
<path d="M22 44C22 39.5817 25.5817 36 30 36H160V150H22V44Z" fill="white"/>
<path d="M21 44C21 39.0294 25.0294 35 30 35H160V37H30C26.134 37 23 40.134 23 44H21ZM160 150H22H160ZM21 150V44C21 39.0294 25.0294 35 30 35V37C26.134 37 23 40.134 23 44V150H21ZM160 36V150V36Z" fill="#CDCED4" mask="url(#path-2-inside-1_1_24)"/>
<path d="M38.7969 74L47.0781 50.7188H51.4531L59.8906 74H56.0312L53.8906 67.8594H44.7344L42.6562 74H38.7969ZM45.75 64.8906H52.8438L51.5 61.0469C51.1875 60.1198 50.849 59.0469 50.4844 57.8281C50.1198 56.599 49.7083 55.1615 49.25 53.5156C48.7917 55.1823 48.3802 56.6354 48.0156 57.875C47.6615 59.1042 47.3385 60.1615 47.0469 61.0469L45.75 64.8906ZM67.2506 74.3906C66.136 74.3906 65.1308 74.1875 64.235 73.7812C63.3496 73.3646 62.6465 72.7604 62.1256 71.9688C61.6048 71.1771 61.3444 70.2083 61.3444 69.0625C61.3444 68.0729 61.5371 67.2604 61.9225 66.625C62.3079 65.9792 62.8235 65.474 63.4694 65.1094C64.1152 64.7344 64.834 64.4531 65.6256 64.2656C66.4277 64.0781 67.2402 63.9375 68.0631 63.8438C69.6048 63.6667 70.7246 63.5156 71.4225 63.3906C72.1204 63.2552 72.4694 62.8802 72.4694 62.2656V62.1719C72.4694 61.2031 72.1829 60.4531 71.61 59.9219C71.0475 59.3802 70.2194 59.1094 69.1256 59.1094C67.9798 59.1094 67.0788 59.3594 66.4225 59.8594C65.7663 60.3594 65.3183 60.9062 65.0788 61.5L61.8444 60.6562C62.2402 59.6146 62.8079 58.776 63.5475 58.1406C64.2871 57.5052 65.1308 57.0417 66.0788 56.75C67.0371 56.4583 68.0371 56.3125 69.0788 56.3125C69.7767 56.3125 70.5215 56.3958 71.3131 56.5625C72.1048 56.7292 72.8496 57.0312 73.5475 57.4688C74.2454 57.8958 74.8131 58.5104 75.2506 59.3125C75.6881 60.1146 75.9069 61.1458 75.9069 62.4062V74H72.5788V71.6094H72.4069C72.0631 72.2969 71.4694 72.9323 70.6256 73.5156C69.7923 74.099 68.6673 74.3906 67.2506 74.3906ZM68.0163 71.625C68.9433 71.625 69.7402 71.4427 70.4069 71.0781C71.0735 70.7031 71.584 70.2188 71.9381 69.625C72.3027 69.0312 72.485 68.3906 72.485 67.7031V65.4688C72.3183 65.6354 71.959 65.7812 71.4069 65.9062C70.8652 66.0208 70.2923 66.1198 69.6881 66.2031C69.084 66.2865 68.6048 66.349 68.2506 66.3906C67.2819 66.526 66.4485 66.7917 65.7506 67.1875C65.0631 67.5729 64.7194 68.2135 64.7194 69.1094C64.7194 69.9427 65.0267 70.5729 65.6413 71C66.2663 71.4167 67.0579 71.625 68.0163 71.625Z" fill="#2D2E32"/>
<rect x="100" width="200" height="150" fill="#101013"/>
<mask id="path-6-inside-2_1_24" fill="white">
<path d="M122 44C122 39.5817 125.582 36 130 36H260V150H122V44Z"/>
</mask>
<path d="M122 44C122 39.5817 125.582 36 130 36H260V150H122V44Z" fill="#1E1E24"/>
<path d="M121 44C121 39.0294 125.029 35 130 35H260V37H130C126.134 37 123 40.134 123 44H121ZM260 150H122H260ZM121 150V44C121 39.0294 125.029 35 130 35V37C126.134 37 123 40.134 123 44V150H121ZM260 36V150V36Z" fill="#3D3E42" mask="url(#path-6-inside-2_1_24)"/>
<path d="M138.797 74L147.078 50.7188H151.453L159.891 74H156.031L153.891 67.8594H144.734L142.656 74H138.797ZM145.75 64.8906H152.844L151.5 61.0469C151.188 60.1198 150.849 59.0469 150.484 57.8281C150.12 56.599 149.708 55.1615 149.25 53.5156C148.792 55.1823 148.38 56.6354 148.016 57.875C147.661 59.1042 147.339 60.1615 147.047 61.0469L145.75 64.8906ZM167.251 74.3906C166.136 74.3906 165.131 74.1875 164.235 73.7812C163.35 73.3646 162.646 72.7604 162.126 71.9688C161.605 71.1771 161.344 70.2083 161.344 69.0625C161.344 68.0729 161.537 67.2604 161.923 66.625C162.308 65.9792 162.824 65.474 163.469 65.1094C164.115 64.7344 164.834 64.4531 165.626 64.2656C166.428 64.0781 167.24 63.9375 168.063 63.8438C169.605 63.6667 170.725 63.5156 171.423 63.3906C172.12 63.2552 172.469 62.8802 172.469 62.2656V62.1719C172.469 61.2031 172.183 60.4531 171.61 59.9219C171.048 59.3802 170.219 59.1094 169.126 59.1094C167.98 59.1094 167.079 59.3594 166.423 59.8594C165.766 60.3594 165.318 60.9062 165.079 61.5L161.844 60.6562C162.24 59.6146 162.808 58.776 163.548 58.1406C164.287 57.5052 165.131 57.0417 166.079 56.75C167.037 56.4583 168.037 56.3125 169.079 56.3125C169.777 56.3125 170.521 56.3958 171.313 56.5625C172.105 56.7292 172.85 57.0312 173.548 57.4688C174.245 57.8958 174.813 58.5104 175.251 59.3125C175.688 60.1146 175.907 61.1458 175.907 62.4062V74H172.579V71.6094H172.407C172.063 72.2969 171.469 72.9323 170.626 73.5156C169.792 74.099 168.667 74.3906 167.251 74.3906ZM168.016 71.625C168.943 71.625 169.74 71.4427 170.407 71.0781C171.074 70.7031 171.584 70.2188 171.938 69.625C172.303 69.0312 172.485 68.3906 172.485 67.7031V65.4688C172.318 65.6354 171.959 65.7812 171.407 65.9062C170.865 66.0208 170.292 66.1198 169.688 66.2031C169.084 66.2865 168.605 66.349 168.251 66.3906C167.282 66.526 166.449 66.7917 165.751 67.1875C165.063 67.5729 164.719 68.2135 164.719 69.1094C164.719 69.9427 165.027 70.5729 165.641 71C166.266 71.4167 167.058 71.625 168.016 71.625Z" fill="#CDCED4"/>
</g>
<defs>
<clipPath id="clip0_1_24">
<rect width="200" height="150" fill="white"/>
</clipPath>
</defs>
</svg>
