<svg width="200" height="150" viewBox="0 0 200 150" fill="none" xmlns="http://www.w3.org/2000/svg">
<rect width="200" height="150" fill="#101013"/>
<mask id="path-2-inside-1_1_11" fill="white">
<path d="M62 44C62 39.5817 65.5817 36 70 36H200V150H62V44Z"/>
</mask>
<path d="M62 44C62 39.5817 65.5817 36 70 36H200V150H62V44Z" fill="#1E1E24"/>
<path d="M61 44C61 39.0294 65.0294 35 70 35H200V37H70C66.134 37 63 40.134 63 44H61ZM200 150H62H200ZM61 150V44C61 39.0294 65.0294 35 70 35V37C66.134 37 63 40.134 63 44V150H61ZM200 36V150V36Z" fill="#3D3E42" mask="url(#path-2-inside-1_1_11)"/>
<path d="M78.7969 74L87.0781 50.7188H91.4531L99.8906 74H96.0312L93.8906 67.8594H84.7344L82.6562 74H78.7969ZM85.75 64.8906H92.8438L91.5 61.0469C91.1875 60.1198 90.849 59.0469 90.4844 57.8281C90.1198 56.599 89.7083 55.1615 89.25 53.5156C88.7917 55.1823 88.3802 56.6354 88.0156 57.875C87.6615 59.1042 87.3385 60.1615 87.0469 61.0469L85.75 64.8906ZM107.251 74.3906C106.136 74.3906 105.131 74.1875 104.235 73.7812C103.35 73.3646 102.646 72.7604 102.126 71.9688C101.605 71.1771 101.344 70.2083 101.344 69.0625C101.344 68.0729 101.537 67.2604 101.923 66.625C102.308 65.9792 102.824 65.474 103.469 65.1094C104.115 64.7344 104.834 64.4531 105.626 64.2656C106.428 64.0781 107.24 63.9375 108.063 63.8438C109.605 63.6667 110.725 63.5156 111.423 63.3906C112.12 63.2552 112.469 62.8802 112.469 62.2656V62.1719C112.469 61.2031 112.183 60.4531 111.61 59.9219C111.048 59.3802 110.219 59.1094 109.126 59.1094C107.98 59.1094 107.079 59.3594 106.423 59.8594C105.766 60.3594 105.318 60.9062 105.079 61.5L101.844 60.6562C102.24 59.6146 102.808 58.776 103.548 58.1406C104.287 57.5052 105.131 57.0417 106.079 56.75C107.037 56.4583 108.037 56.3125 109.079 56.3125C109.777 56.3125 110.521 56.3958 111.313 56.5625C112.105 56.7292 112.85 57.0312 113.548 57.4688C114.245 57.8958 114.813 58.5104 115.251 59.3125C115.688 60.1146 115.907 61.1458 115.907 62.4062V74H112.579V71.6094H112.407C112.063 72.2969 111.469 72.9323 110.626 73.5156C109.792 74.099 108.667 74.3906 107.251 74.3906ZM108.016 71.625C108.943 71.625 109.74 71.4427 110.407 71.0781C111.074 70.7031 111.584 70.2188 111.938 69.625C112.303 69.0312 112.485 68.3906 112.485 67.7031V65.4688C112.318 65.6354 111.959 65.7812 111.407 65.9062C110.865 66.0208 110.292 66.1198 109.688 66.2031C109.084 66.2865 108.605 66.349 108.251 66.3906C107.282 66.526 106.449 66.7917 105.751 67.1875C105.063 67.5729 104.719 68.2135 104.719 69.1094C104.719 69.9427 105.027 70.5729 105.641 71C106.266 71.4167 107.058 71.625 108.016 71.625Z" fill="#CDCED4"/>
</svg>
